<svg width="706" height="704" viewBox="0 0 706 704" fill="none" xmlns="http://www.w3.org/2000/svg">
<path d="M103.288 651.086C241.015 721.627 464.305 721.649 602.032 651.086C739.759 580.524 739.739 466.163 602.032 395.622C464.325 325.081 241.015 325.081 103.288 395.622C-34.4393 466.163 -34.4193 580.545 103.288 651.086Z" fill="#F5F5F5"/>
<path d="M601.552 598.954C626.918 598.954 647.481 588.423 647.481 575.433C647.481 562.443 626.918 551.912 601.552 551.912C576.186 551.912 555.623 562.443 555.623 575.433C555.623 588.423 576.186 598.954 601.552 598.954Z" fill="#EBEBEB"/>
<path d="M92.835 578.805L109.084 568.731C118.156 560.774 125.061 550.333 129.071 538.509C134.087 523.644 133.388 512.346 129.79 506.675C125.373 499.694 113.921 500.918 113.461 515.611C112.502 544.566 104.647 564.65 92.835 578.805Z" fill="#FF725E"/>
<path opacity="0.2" d="M92.835 578.805L109.084 568.731C118.156 560.774 125.061 550.333 129.071 538.509C134.087 523.644 133.388 512.346 129.79 506.675C125.373 499.694 113.921 500.918 113.461 515.611C112.502 544.566 104.647 564.65 92.835 578.805Z" fill="black"/>
<path d="M92.8349 579.879C92.6233 579.877 92.418 579.802 92.2486 579.665C92.0791 579.529 91.9543 579.339 91.892 579.121C91.8298 578.904 91.8334 578.671 91.9023 578.456C91.9712 578.241 92.1018 578.055 92.2753 577.925C129.85 550 122.575 511.057 122.495 510.67C122.467 510.529 122.466 510.384 122.491 510.242C122.515 510.1 122.566 509.965 122.639 509.845C122.713 509.724 122.807 509.62 122.918 509.539C123.029 509.457 123.153 509.4 123.284 509.371C123.416 509.341 123.551 509.339 123.683 509.366C123.815 509.393 123.94 509.447 124.053 509.526C124.165 509.604 124.262 509.706 124.337 509.825C124.413 509.944 124.466 510.078 124.494 510.219C124.494 510.627 132.168 550.903 93.4745 579.686C93.2867 579.824 93.0621 579.892 92.8349 579.879Z" fill="white"/>
<path d="M60.2769 599.018C60.2769 599.018 54.6207 594.078 55.9797 587.376C57.3388 580.674 60.9964 575.863 54.7406 567.228C48.4848 558.593 46.746 547.079 54.2209 540.85C59.9171 536.017 68.8111 542.848 72.009 530.11C74.3674 520.787 73.5679 500.145 84.6205 493.271C95.673 486.398 102.608 496.751 100.87 510.756C99.3505 523.279 97.192 535.329 98.8709 538.68C102.109 545.124 107.645 544.244 107.385 556.015C107.165 566.97 97.5118 576.034 97.5118 576.034L60.2769 599.018Z" fill="#FF725E"/>
<path d="M78.8444 588.514C78.6001 588.512 78.3648 588.415 78.1813 588.241C77.9979 588.068 77.8786 587.829 77.845 587.569C74.987 562.115 81.8424 518.167 87.4386 505.107C87.4857 504.962 87.5612 504.83 87.6599 504.719C87.7586 504.608 87.8782 504.521 88.0108 504.464C88.1434 504.407 88.2858 504.381 88.4284 504.388C88.571 504.395 88.7106 504.435 88.8376 504.505C88.9569 504.563 89.0643 504.646 89.1533 504.749C89.2423 504.852 89.3112 504.973 89.3559 505.105C89.4006 505.238 89.4203 505.378 89.4136 505.518C89.407 505.659 89.3742 505.796 89.3173 505.923C83.781 518.811 77.1655 562.889 79.9037 587.226C79.9318 587.507 79.8551 587.79 79.6904 588.011C79.5256 588.232 79.2862 588.375 79.0242 588.407L78.8444 588.514Z" fill="white"/>
<path d="M78.3048 568.688C78.1518 568.696 77.9998 568.659 77.8651 568.581C70.9297 564.951 66.5327 551.998 66.3528 551.397C66.3038 551.263 66.2803 551.12 66.2835 550.977C66.2868 550.833 66.3168 550.692 66.3718 550.561C66.4268 550.43 66.5057 550.312 66.6037 550.215C66.7018 550.117 66.817 550.042 66.9426 549.993C67.0683 549.944 67.2018 549.923 67.3352 549.93C67.4686 549.938 67.5993 549.974 67.7195 550.037C67.8396 550.1 67.9469 550.188 68.0348 550.296C68.1228 550.404 68.1897 550.53 68.2315 550.666C68.2315 550.795 72.5286 563.34 78.7445 566.583C78.9484 566.689 79.1127 566.867 79.2104 567.086C79.3082 567.306 79.3336 567.555 79.2824 567.792C79.2313 568.029 79.1067 568.241 78.9291 568.392C78.7515 568.543 78.5313 568.625 78.3048 568.624V568.688Z" fill="white"/>
<path d="M78.1848 577.28C77.9846 577.28 77.7891 577.215 77.6247 577.092C77.4603 576.969 77.3349 576.795 77.2654 576.593C77.166 576.331 77.1669 576.037 77.268 575.775C77.369 575.514 77.5621 575.306 77.8051 575.197C89.4772 570.17 96.7523 555.242 96.8323 555.07C96.9542 554.816 97.1648 554.625 97.4178 554.539C97.6708 554.452 97.9455 554.477 98.1814 554.608C98.4172 554.739 98.595 554.965 98.6756 555.237C98.7562 555.509 98.733 555.804 98.6111 556.058C98.2913 556.702 90.9162 571.867 78.6245 577.194C78.4876 577.264 78.3359 577.294 78.1848 577.28Z" fill="white"/>
<path d="M486.17 461.717C486.17 461.717 477.436 446.509 476.577 429.991C475.717 413.472 479.095 406.599 483.732 404.623C488.369 402.646 488.728 408.725 491.107 412.312C493.485 415.9 498.342 413.859 500.141 402.668C501.939 391.477 508.495 372.596 522.126 368.922C537.116 364.927 529.081 383.83 525.304 391.197C521.526 398.565 518.608 408.618 521.087 411.346C523.565 414.074 527.422 409.026 531.08 413.709C535.537 419.358 521.686 439.7 513.732 444.619L486.17 461.717Z" fill="#FF725E"/>
<path d="M498.142 455.337C498.011 455.332 497.882 455.298 497.762 455.239C497.643 455.18 497.536 455.096 497.447 454.993C497.358 454.889 497.289 454.767 497.243 454.635C497.198 454.502 497.177 454.361 497.183 454.22C498.536 427.648 506.246 401.901 519.568 379.469C519.643 379.352 519.74 379.253 519.852 379.178C519.964 379.102 520.089 379.052 520.22 379.03C520.351 379.007 520.484 379.014 520.613 379.049C520.741 379.084 520.861 379.147 520.967 379.233C521.176 379.4 521.316 379.649 521.357 379.926C521.398 380.203 521.337 380.486 521.186 380.715C508.103 402.819 500.532 428.169 499.201 454.328C499.194 454.469 499.16 454.607 499.103 454.734C499.045 454.861 498.965 454.975 498.867 455.069C498.768 455.163 498.654 455.235 498.529 455.281C498.405 455.327 498.273 455.346 498.142 455.337Z" fill="white"/>
<path d="M499.281 442.642C499.114 442.641 498.95 442.597 498.802 442.514C493.205 439.184 490.107 429.303 489.988 428.895C489.943 428.761 489.925 428.619 489.932 428.477C489.939 428.335 489.973 428.197 490.03 428.069C490.088 427.941 490.169 427.827 490.268 427.732C490.367 427.638 490.482 427.566 490.607 427.52C490.859 427.432 491.133 427.455 491.369 427.584C491.605 427.713 491.784 427.937 491.866 428.208C491.866 428.208 494.864 437.723 499.861 440.623C500.087 440.767 500.253 440.999 500.324 441.272C500.395 441.544 500.365 441.835 500.241 442.084C500.15 442.269 500.011 442.421 499.84 442.52C499.669 442.619 499.475 442.662 499.281 442.642Z" fill="white"/>
<path d="M500.261 436.134C500.039 436.131 499.825 436.05 499.651 435.902C499.477 435.754 499.354 435.549 499.301 435.318C499.268 435.182 499.261 435.041 499.28 434.903C499.298 434.764 499.342 434.631 499.409 434.511C499.476 434.391 499.565 434.286 499.67 434.204C499.775 434.121 499.894 434.061 500.021 434.029C514.451 430.098 519.448 421.978 519.488 421.893C519.558 421.773 519.651 421.669 519.759 421.587C519.867 421.506 519.989 421.448 520.118 421.417C520.247 421.386 520.38 421.383 520.511 421.407C520.641 421.432 520.765 421.483 520.877 421.56C520.988 421.636 521.085 421.735 521.161 421.851C521.237 421.967 521.291 422.098 521.319 422.237C521.348 422.376 521.351 422.519 521.328 422.659C521.306 422.799 521.257 422.933 521.186 423.052C520.967 423.418 515.77 431.945 500.52 436.112L500.261 436.134Z" fill="white"/>
<path d="M268.717 428.337C268.717 428.337 249.549 423.31 248.55 384.732C247.491 343.103 253.247 294.515 230.562 290.584C207.877 286.653 195.286 316.36 195.566 351.051C195.826 381.424 207.218 447.368 268.637 460.299L268.717 428.337Z" fill="#FF725E"/>
<path opacity="0.2" d="M268.717 428.337C268.717 428.337 249.549 423.31 248.55 384.732C247.491 343.103 253.247 294.515 230.562 290.584C207.877 286.653 195.286 316.36 195.566 351.051C195.826 381.424 207.218 447.368 268.637 460.299L268.717 428.337Z" fill="black"/>
<path d="M268.716 456.347H268.537C254.726 453.64 243.473 445.456 235.099 432.053C210.276 392.25 218.091 317.928 220.669 304.954C220.727 304.678 220.882 304.436 221.101 304.28C221.321 304.124 221.589 304.065 221.848 304.117C222.107 304.183 222.332 304.354 222.477 304.594C222.622 304.834 222.676 305.124 222.628 305.405C220.089 318.294 212.314 391.67 236.758 430.85C240.316 436.926 245.01 442.141 250.543 446.164C256.075 450.187 262.325 452.93 268.896 454.22C269.027 454.246 269.151 454.299 269.262 454.377C269.373 454.455 269.469 454.556 269.543 454.674C269.618 454.792 269.669 454.925 269.696 455.064C269.722 455.204 269.722 455.348 269.696 455.488C269.653 455.732 269.532 455.952 269.352 456.11C269.173 456.267 268.948 456.351 268.716 456.347Z" fill="white"/>
<path d="M268.716 555.349C248.91 558.227 216.751 558.184 198.184 542.461C179.616 526.737 183.494 513.205 190.629 507.556C197.764 501.906 203.96 495.462 191.688 482.918C179.417 470.373 159.71 450.225 153.314 420.002C146.918 389.78 150.076 370.877 162.628 364.583C174.8 358.483 178.018 368.192 185.473 388.212C192.928 408.231 209.696 391.068 224.047 397.319C238.397 403.57 237.817 415.943 238.717 426.575C239.616 437.208 244.353 440.151 252.487 440.151C260.622 440.151 268.716 445.177 268.716 455.187V555.349Z" fill="#FF725E"/>
<path d="M268.717 520.25C268.631 520.271 268.542 520.271 268.457 520.25C267.597 519.993 247.111 513.591 217.271 484.142C185.493 452.781 170.503 405.739 170.343 405.267C170.266 404.996 170.29 404.704 170.409 404.452C170.528 404.2 170.734 404.007 170.982 403.914C171.232 403.825 171.503 403.844 171.739 403.969C171.975 404.094 172.155 404.313 172.242 404.579C172.381 405.052 187.231 451.578 218.63 482.553C248.05 511.615 268.776 518.124 268.996 518.188C269.122 518.228 269.24 518.294 269.342 518.382C269.445 518.47 269.53 518.579 269.593 518.703C269.656 518.827 269.696 518.962 269.71 519.103C269.724 519.243 269.713 519.385 269.676 519.52C269.611 519.737 269.483 519.925 269.31 520.057C269.137 520.189 268.928 520.257 268.717 520.25Z" fill="white"/>
<path d="M225.606 491.617C225.405 491.621 225.208 491.556 225.043 491.433C224.878 491.309 224.753 491.133 224.686 490.93C218.271 473.23 216.812 435.361 216.692 433.75C216.686 433.466 216.783 433.191 216.962 432.983C217.141 432.775 217.388 432.649 217.651 432.633C217.912 432.637 218.162 432.744 218.354 432.934C218.546 433.125 218.666 433.384 218.69 433.664C218.69 434.05 220.189 472.779 226.485 490.157C226.533 490.289 226.556 490.431 226.553 490.573C226.55 490.715 226.521 490.855 226.467 490.985C226.413 491.115 226.335 491.232 226.239 491.329C226.143 491.427 226.029 491.503 225.905 491.553C225.809 491.59 225.708 491.612 225.606 491.617Z" fill="white"/>
<path d="M225.446 517.071C223.603 517.087 221.761 516.986 219.929 516.771C219.798 516.754 219.671 516.709 219.556 516.64C219.441 516.57 219.339 516.477 219.258 516.365C219.176 516.253 219.116 516.125 219.08 515.989C219.044 515.852 219.034 515.709 219.05 515.568C219.066 515.427 219.107 515.29 219.172 515.166C219.237 515.043 219.323 514.934 219.427 514.846C219.531 514.758 219.65 514.693 219.778 514.655C219.905 514.617 220.038 514.606 220.169 514.623C220.349 514.623 238.957 516.899 247.491 507.556C247.58 507.443 247.689 507.35 247.813 507.285C247.936 507.22 248.071 507.182 248.209 507.176C248.346 507.169 248.484 507.193 248.612 507.246C248.741 507.299 248.858 507.38 248.956 507.484C249.054 507.588 249.131 507.712 249.182 507.85C249.233 507.987 249.257 508.134 249.253 508.282C249.249 508.43 249.216 508.576 249.157 508.709C249.098 508.843 249.014 508.962 248.91 509.059C242.734 515.911 231.961 517.071 225.446 517.071Z" fill="white"/>
<path d="M211.055 110.322L208.897 96.9401L197.784 104.802C196.769 102.654 195.33 100.77 193.567 99.2815L198.884 83.8157L188.89 81.4314L181.575 96.4675C178.929 96.9474 176.363 97.845 173.96 99.1311L170.782 87.7896L158.91 97.8208L159.69 111.139C157.272 114.049 155.08 117.167 153.134 120.461L143.341 119.924L136.466 136.485L144.88 140.352C144.001 143.777 143.446 147.289 143.221 150.834L132.528 161.402L134.667 174.806L145.799 166.944C146.809 169.09 148.249 170.968 150.016 172.443L144.8 187.93L154.793 190.293L165.266 179.338C167.685 178.93 167.085 174.033 169.723 172.636L172.901 183.935L184.753 173.925L184.453 168.684C186.852 165.806 195.926 159.469 197.884 156.161L200.343 151.865L207.218 135.304L204.02 129.075L200.462 120.955L211.055 110.322ZM174.78 154.378C165.666 162.068 162.788 163.765 161.249 153.476C159.71 143.187 164.926 127.549 174.04 119.838C183.154 112.127 186.632 111.59 188.271 121.857C189.91 132.125 183.914 146.774 174.78 154.378Z" fill="#E0E0E0"/>
<path d="M188.97 81.4314L201.941 89.465L194.626 104.458L181.655 96.4246L188.97 81.4314Z" fill="#F5F5F5"/>
<path d="M221.868 104.974L210.756 112.835L197.784 104.802L208.897 96.9401L221.868 104.974Z" fill="#F5F5F5"/>
<path d="M220.089 143.273L211.675 139.428L198.704 131.394L207.118 135.239L220.089 143.273Z" fill="#E0E0E0"/>
<path d="M144.78 187.93L157.751 195.942L163.068 180.477L150.096 172.443L144.78 187.93Z" fill="#E0E0E0"/>
<path d="M185.752 191.969L172.801 183.935L169.623 172.636L182.594 180.67L185.752 191.969Z" fill="#E0E0E0"/>
<path d="M224.007 118.356L221.868 104.974L210.756 112.835C209.733 110.687 208.287 108.803 206.518 107.315L211.835 91.8493L201.941 89.465L194.606 104.501C191.96 104.981 189.394 105.879 186.992 107.165L183.834 95.8661L171.962 105.897L172.741 119.215C170.321 122.146 168.128 125.286 166.186 128.602L156.372 128.065L149.497 144.626L157.911 148.493C157.041 151.927 156.485 155.445 156.252 158.996L145.579 169.414L147.718 182.818L158.83 174.956C159.854 177.099 161.3 178.976 163.068 180.455L157.751 195.921L167.744 198.305L175.06 183.269C177.716 182.795 180.291 181.889 182.694 180.584L185.852 191.883L197.724 181.873L196.945 168.555C199.362 165.645 201.555 162.527 203.5 159.233L213.314 159.748L220.189 143.187L211.655 139.342C212.54 135.91 213.102 132.391 213.334 128.838L224.007 118.356ZM187.771 162.498C178.677 170.188 169.963 168.104 168.304 157.836C166.645 147.569 172.701 132.984 181.815 125.294C190.929 117.604 199.623 119.709 201.282 129.977C202.941 140.244 196.885 154.808 187.771 162.498Z" fill="#EBEBEB"/>
<path d="M183.834 95.8232L170.862 87.7896L158.99 97.8208L171.962 105.854L183.834 95.8232Z" fill="#F5F5F5"/>
<path d="M158.99 97.8208L159.77 111.139L172.741 119.172L171.962 105.854L158.99 97.8208Z" fill="#E0E0E0"/>
<path d="M166.186 128.495L153.214 120.461L143.421 119.945L156.372 127.979L166.186 128.495Z" fill="#F5F5F5"/>
<path d="M143.421 119.945L136.546 136.485L149.497 144.519L156.372 127.979L143.421 119.945Z" fill="#E0E0E0"/>
<path d="M156.252 158.868L143.301 150.834L132.608 161.402L145.559 169.436L156.252 158.868Z" fill="#F5F5F5"/>
<path d="M147.718 182.839L134.747 174.806L132.608 161.402L145.559 169.436L147.718 182.839Z" fill="#E0E0E0"/>
<path d="M201.942 89.465L188.97 81.4314L198.884 83.8157L211.835 91.8493L201.942 89.465Z" fill="#F5F5F5"/>
<path d="M152.974 49.5763V29.5782L138.164 36.7526C137.38 33.3597 136.025 30.1494 134.167 27.2799L143.501 7.06699L132.108 0L120.476 18.7952C117.235 18.4908 113.969 18.8331 110.843 19.8047L109.204 2.42727L93.0948 12.437L91.4759 31.7692C87.97 35.1079 84.7462 38.7739 81.8423 42.7241L70.2102 38.4281L58.8179 59.6505L68.1316 68.2426C66.4106 72.9199 65.0731 77.7498 64.1343 82.6773L49.3243 93.8685V113.888L64.1343 106.714C64.9187 110.107 66.2734 113.317 68.1316 116.186L58.8578 136.421L70.2501 143.488L81.8823 124.693C85.1239 124.996 88.3898 124.654 91.5158 123.683L93.1347 141.06L109.244 131.051L110.883 111.719C115.911 109.747 120.365 106.383 123.794 101.967L132.148 105.124L143.541 83.9231L136.545 77.4791C138.064 72.1055 138.627 66.4725 138.204 60.8749L152.974 49.5763ZM101.149 99.5392C88.7977 107.208 81.1628 101.687 81.1628 86.4148C81.1628 71.1424 91.3759 52.2613 103.748 44.5929C116.119 36.9245 123.594 42.4449 123.594 57.8462C123.594 73.2475 113.521 91.8493 101.149 99.5392Z" fill="#E0E0E0"/>
<path d="M145.06 8.01212L132.109 0L120.476 18.7952L133.428 26.8288L145.06 8.01212Z" fill="#F5F5F5"/>
<path d="M165.946 37.6118L152.974 29.5782L138.164 36.7526L151.136 44.7862L165.946 37.6118Z" fill="#F5F5F5"/>
<path d="M106.046 149.094L93.0948 141.06L91.4759 123.683L104.427 131.717L106.046 149.094Z" fill="#E0E0E0"/>
<path d="M58.7979 136.421L71.7691 144.454L81.1028 124.241L68.1316 116.208L58.7979 136.421Z" fill="#E0E0E0"/>
<path d="M165.946 57.7173V37.7192L151.136 44.8292C150.359 41.4332 149.004 38.2213 147.138 35.3564L156.472 15.1436L145.08 8.05508L133.448 26.8717C130.206 26.5568 126.938 26.8993 123.814 27.8813L122.175 10.4609L106.066 20.4707L104.427 39.8028C100.926 43.1471 97.7029 46.8126 94.7936 50.7577L83.1615 46.4617L71.7691 67.6841L81.1028 76.2762C79.3728 80.9501 78.0351 85.7809 77.1055 90.7109L62.2955 101.902V121.922L77.1055 114.747C77.8813 118.143 79.2367 121.355 81.1028 124.22L71.7691 144.433L83.1615 151.5L94.7936 132.705C98.0353 133.009 101.301 132.667 104.427 131.695L106.066 149.073L122.175 139.063L123.794 119.731C127.3 116.392 130.524 112.726 133.428 108.776L145.06 113.072L156.452 91.8708L147.118 83.2787C148.848 78.6046 150.186 73.7739 151.116 68.8441L165.946 57.7173ZM114.121 107.68C101.749 115.349 91.7157 109.119 91.7157 93.7825C91.7157 78.4457 101.709 59.7794 114.121 52.0895C126.532 44.3996 136.506 50.6503 136.506 65.9872C136.506 81.324 126.472 99.883 114.121 107.573V107.68Z" fill="#EBEBEB"/>
<path d="M81.8423 42.7671L94.7936 50.8007L83.1615 46.4402L70.2102 38.3851L81.8423 42.7671Z" fill="#F0F0F0"/>
<path d="M70.2088 38.4071L58.8134 59.6367L71.7803 67.6761L83.1757 46.4465L70.2088 38.4071Z" fill="#F5F5F5"/>
<path d="M58.7979 59.6075L71.7691 67.6411L81.1028 76.2762L68.1316 68.2641L58.7979 59.6075Z" fill="#E0E0E0"/>
<path d="M64.1343 82.6988L77.1055 90.7323L62.2955 101.924L49.3243 93.8899L64.1343 82.6988Z" fill="#F5F5F5"/>
<path d="M49.3243 93.8899L62.2955 101.924V121.943L49.3243 113.909V93.8899Z" fill="#E0E0E0"/>
<path d="M122.175 10.4609L109.204 2.42731L93.0948 12.4371L106.046 20.4707L122.175 10.4609Z" fill="#F5F5F5"/>
<path d="M288.463 584.089L476.337 467.495C476.751 467.339 477.109 467.048 477.363 466.663C477.616 466.278 477.753 465.819 477.753 465.347C477.753 464.875 477.616 464.416 477.363 464.031C477.109 463.646 476.751 463.355 476.337 463.199L458.968 452.459C457.893 451.877 456.705 451.574 455.501 451.574C454.296 451.574 453.109 451.877 452.033 452.459L264.1 568.946C263.686 569.102 263.327 569.393 263.074 569.778C262.82 570.163 262.684 570.622 262.684 571.094C262.684 571.566 262.82 572.025 263.074 572.41C263.327 572.795 263.686 573.086 264.1 573.242L281.528 583.982C282.596 584.581 283.779 584.902 284.984 584.921C286.188 584.939 287.38 584.655 288.463 584.089Z" fill="#E0E0E0"/>
<path d="M471.18 17.3345L301.774 122.459C299.256 124.225 297.16 126.604 295.657 129.403C294.153 132.202 293.284 135.342 293.12 138.569V570.471C293.12 576.4 296.997 578.805 301.774 575.841L471.18 470.717C473.702 468.955 475.8 466.577 477.304 463.777C478.808 460.977 479.675 457.835 479.834 454.607V22.7046C479.834 16.7761 475.977 14.3703 471.18 17.3345Z" fill="#455A64"/>
<path d="M301.774 122.459L471.18 17.3345C475.457 14.671 478.995 16.325 479.714 20.9432C479.315 18.0396 478.348 15.2599 476.877 12.7868C475.406 10.3137 473.464 8.20328 471.18 6.59444L464.145 2.2984C461.463 0.83603 458.498 0.0739136 455.491 0.0739136C452.483 0.0739136 449.518 0.83603 446.836 2.2984L277.411 107.337C274.859 109.056 272.755 111.443 271.295 114.275L295.658 129.311C297.118 126.502 299.223 124.142 301.774 122.459Z" fill="#37474F"/>
<path d="M268.716 555.349C268.881 558.576 269.75 561.716 271.253 564.515C272.757 567.314 274.852 569.693 277.371 571.459L284.426 575.755C286.868 577.068 289.54 577.812 292.268 577.938C294.996 578.063 297.718 577.569 300.255 576.486C296.258 578.161 293.08 575.691 293.08 570.385V138.569C293.18 135.328 294.054 132.169 295.618 129.397L271.255 114.361C269.713 117.112 268.84 120.237 268.716 123.447V555.349Z" fill="#263238"/>
<path d="M306.431 180.004L466.583 80.6582C469.461 78.8968 471.78 80.336 471.78 83.8802V403.548C471.684 405.486 471.163 407.371 470.26 409.051C469.357 410.731 468.097 412.158 466.583 413.215L306.491 512.56C303.613 514.343 301.295 512.904 301.295 509.338V189.67C301.385 187.739 301.898 185.858 302.79 184.179C303.682 182.5 304.93 181.069 306.431 180.004Z" fill="white"/>
<path d="M386.477 86.2645C385.593 86.8882 384.858 87.7263 384.33 88.7112C383.802 89.6962 383.497 90.8004 383.439 91.9353C383.439 94.0833 384.798 94.8781 386.477 93.8255C387.365 93.2056 388.103 92.3685 388.631 91.3828C389.159 90.397 389.462 89.2908 389.515 88.1548C389.515 86.0712 388.156 85.2335 386.477 86.2645Z" fill="#37474F"/>
<path d="M386.477 478.171C382.983 480.627 380.077 483.934 377.993 487.822C375.91 491.711 374.708 496.072 374.485 500.553C374.485 508.78 379.862 512.131 386.477 508.007C389.97 505.549 392.876 502.242 394.959 498.354C397.042 494.465 398.245 490.105 398.469 485.624C398.509 477.397 393.113 474.046 386.477 478.171Z" fill="#37474F"/>
<path d="M357.717 119.516C355.96 120.769 354.502 122.448 353.461 124.418C352.419 126.389 351.823 128.594 351.721 130.857C351.721 135.025 354.439 136.721 357.717 134.638C359.492 133.397 360.969 131.722 362.028 129.752C363.087 127.781 363.699 125.569 363.812 123.296C363.812 119.129 361.094 117.432 357.717 119.516Z" fill="#37474F"/>
<path d="M372.646 118.098C372.646 120.891 374.645 121.943 376.984 120.461L416.957 95.6084C418.195 94.7773 419.233 93.6438 419.987 92.3C420.74 90.9563 421.188 89.4403 421.294 87.8755C421.294 85.1046 419.295 84.052 416.957 85.5341L376.984 110.387C375.748 111.216 374.711 112.346 373.958 113.686C373.204 115.025 372.755 116.537 372.646 118.098Z" fill="#37474F"/>
<path d="M282.227 193.837C283.646 194.83 284.826 196.168 285.674 197.743C286.521 199.318 287.011 201.086 287.104 202.902C287.104 206.253 284.926 207.606 282.227 205.931C280.814 204.934 279.638 203.595 278.794 202.02C277.951 200.446 277.463 198.68 277.371 196.866C277.371 193.537 279.549 192.183 282.227 193.837Z" fill="#37474F"/>
<path d="M282.227 234.177C283.646 235.17 284.826 236.508 285.674 238.083C286.521 239.658 287.011 241.425 287.104 243.242C287.104 246.571 284.926 247.924 282.227 246.27C280.814 245.274 279.638 243.934 278.794 242.36C277.951 240.785 277.463 239.02 277.371 237.206C277.371 233.855 279.549 232.502 282.227 234.177Z" fill="#37474F"/>
<path d="M280.708 194.654C282.127 195.646 283.307 196.985 284.155 198.56C285.002 200.134 285.492 201.902 285.585 203.718C285.585 207.048 283.407 208.401 280.708 206.747C279.29 205.754 278.109 204.416 277.262 202.841C276.415 201.266 275.925 199.499 275.832 197.682C275.852 194.331 278.03 193.043 280.708 194.654Z" fill="#455A64"/>
<path d="M280.708 234.972C282.129 235.967 283.312 237.308 284.159 238.887C285.007 240.466 285.495 242.238 285.585 244.058C285.585 247.387 283.407 248.741 280.708 247.065C279.287 246.076 278.104 244.739 277.256 243.163C276.408 241.588 275.92 239.818 275.832 238.001C275.852 234.671 278.03 233.318 280.708 234.972Z" fill="#455A64"/>
<path d="M504.198 93.9974C504.198 90.4316 501.879 88.9925 499.001 90.7753L479.834 102.654L338.909 190.121C337.396 191.178 336.136 192.605 335.233 194.285C334.33 195.965 333.809 197.85 333.713 199.787V519.37C333.713 522.935 336.031 524.375 338.909 522.592L479.894 435.103L499.001 423.246C500.515 422.189 501.775 420.762 502.678 419.082C503.581 417.403 504.102 415.517 504.198 413.58V93.9974Z" fill="white"/>
<path d="M506.197 93.9973C506.322 92.9201 506.15 91.827 505.7 90.8546C505.251 89.8823 504.545 89.0739 503.671 88.5305C502.796 87.9872 501.792 87.7331 500.784 87.8C499.775 87.8669 498.808 88.2517 498.002 88.9065L479.714 100.27L337.91 188.338C336.084 189.577 334.566 191.274 333.487 193.284C332.407 195.293 331.799 197.555 331.714 199.873V519.37C331.634 520.442 331.826 521.518 332.269 522.482C332.713 523.447 333.391 524.264 334.232 524.847C334.948 525.294 335.763 525.524 336.591 525.513C337.762 525.474 338.905 525.111 339.909 524.46L481.813 436.392L500.061 425.072C501.876 423.821 503.386 422.121 504.464 420.114C505.542 418.107 506.157 415.852 506.256 413.537L506.197 93.9973ZM479.754 432.719L478.115 433.75L337.99 520.701C337.754 520.896 337.481 521.031 337.191 521.098C336.901 521.165 336.6 521.162 336.311 521.088C336.051 520.916 335.791 520.315 335.791 519.327V199.787C335.895 198.228 336.326 196.714 337.053 195.359C337.78 194.005 338.784 192.845 339.988 191.969L479.974 104.974L499.961 92.5367C500.196 92.3422 500.469 92.2066 500.76 92.1397C501.05 92.0729 501.351 92.0764 501.64 92.15C501.899 92.3219 502.159 92.9233 502.159 93.9114V413.58C502.056 415.139 501.624 416.653 500.897 418.008C500.17 419.362 499.167 420.521 497.962 421.398L479.714 432.719H479.754Z" fill="#FF725E"/>
<path d="M418.955 168.254C436.943 157.128 451.433 166.106 451.433 188.424C451.433 210.742 436.883 237.829 418.955 248.87C401.027 259.91 386.477 251.018 386.477 228.721C386.477 206.425 401.027 179.403 418.955 168.254Z" fill="#FF725E"/>
<path d="M418.955 185.782C424.771 182.174 429.488 185.095 429.488 192.226C429.291 196.155 428.234 199.978 426.404 203.386C424.574 206.793 422.022 209.689 418.955 211.838C413.139 215.446 408.422 212.525 408.422 205.394C408.62 201.465 409.677 197.642 411.507 194.234C413.337 190.827 415.889 187.931 418.955 185.782Z" fill="#FF725E"/>
<path d="M439.481 224.275C439.481 212.418 431.747 207.606 422.173 213.535L416.177 217.251C406.624 223.179 398.869 237.614 398.869 249.471V252.672C404.405 254.626 411.36 253.574 418.855 248.87C427.158 243.365 434.179 235.893 439.382 227.024L439.481 224.275Z" fill="#FF725E"/>
<path opacity="0.7" d="M418.955 185.782C424.771 182.174 429.488 185.095 429.488 192.226C429.291 196.155 428.234 199.978 426.404 203.386C424.574 206.793 422.022 209.689 418.955 211.838C413.139 215.446 408.422 212.525 408.422 205.394C408.62 201.465 409.677 197.642 411.507 194.234C413.337 190.827 415.889 187.931 418.955 185.782Z" fill="white"/>
<path opacity="0.7" d="M439.481 224.275C439.481 212.418 431.747 207.606 422.173 213.535L416.177 217.251C406.624 223.179 398.869 237.614 398.869 249.471V252.672C404.405 254.626 411.36 253.574 418.855 248.87C427.158 243.365 434.179 235.893 439.382 227.024L439.481 224.275Z" fill="white"/>
<path d="M356.118 297.952L397.909 272.025C399.908 270.844 401.367 271.789 401.367 274.173V275.655C401.304 276.946 400.958 278.203 400.357 279.323C399.756 280.443 398.917 281.394 397.909 282.099L356.118 308.026C354.219 309.207 352.66 308.241 352.66 305.878V304.396C352.725 303.105 353.072 301.849 353.672 300.73C354.273 299.61 355.111 298.659 356.118 297.952Z" fill="#FF725E"/>
<path opacity="0.1" d="M356.118 297.952L397.909 272.025C399.908 270.844 401.367 271.789 401.367 274.173V275.655C401.304 276.946 400.958 278.203 400.357 279.323C399.756 280.443 398.917 281.394 397.909 282.099L356.118 308.026C354.219 309.207 352.66 308.241 352.66 305.878V304.396C352.725 303.105 353.072 301.849 353.672 300.73C354.273 299.61 355.111 298.659 356.118 297.952Z" fill="black"/>
<path d="M354.399 329.248L480.834 250.803C481.773 250.201 482.552 250.674 482.552 251.877V267.729C482.517 268.373 482.344 268.998 482.046 269.557C481.747 270.116 481.332 270.594 480.834 270.951L354.399 349.397C353.439 349.998 352.66 349.504 352.66 348.323V332.471C352.694 331.825 352.87 331.196 353.172 330.636C353.474 330.077 353.894 329.601 354.399 329.248Z" fill="#FF725E"/>
<path opacity="0.2" d="M354.399 329.248L480.834 250.803C481.773 250.201 482.552 250.674 482.552 251.877V267.729C482.517 268.373 482.344 268.998 482.046 269.557C481.747 270.116 481.332 270.594 480.834 270.951L354.399 349.397C353.439 349.998 352.66 349.504 352.66 348.323V332.471C352.694 331.825 352.87 331.196 353.172 330.636C353.474 330.077 353.894 329.601 354.399 329.248Z" fill="white"/>
<path d="M356.118 368.471L397.909 342.545C399.908 341.363 401.367 342.33 401.367 344.693V346.175C401.305 347.466 400.96 348.723 400.359 349.843C399.758 350.964 398.919 351.915 397.909 352.619L356.118 378.545C354.219 379.748 352.66 378.782 352.66 376.397V374.915C352.728 373.626 353.076 372.371 353.677 371.252C354.277 370.133 355.113 369.181 356.118 368.471Z" fill="#FF725E"/>
<path opacity="0.1" d="M356.118 368.471L397.909 342.545C399.908 341.363 401.367 342.33 401.367 344.693V346.175C401.305 347.466 400.96 348.723 400.359 349.843C399.758 350.964 398.919 351.915 397.909 352.619L356.118 378.545C354.219 379.748 352.66 378.782 352.66 376.397V374.915C352.728 373.626 353.076 372.371 353.677 371.252C354.277 370.133 355.113 369.181 356.118 368.471Z" fill="black"/>
<path d="M354.399 399.768L480.834 321.322C481.773 320.721 482.552 321.215 482.552 322.396V338.249C482.517 338.892 482.344 339.518 482.046 340.077C481.747 340.636 481.332 341.113 480.834 341.471L354.399 419.916C353.439 420.518 352.66 420.045 352.66 418.842V402.99C352.694 402.344 352.87 401.716 353.172 401.156C353.474 400.596 353.894 400.121 354.399 399.768Z" fill="#FF725E"/>
<path opacity="0.2" d="M354.399 399.768L480.834 321.322C481.773 320.721 482.552 321.215 482.552 322.396V338.249C482.517 338.892 482.344 339.518 482.046 340.077C481.747 340.636 481.332 341.113 480.834 341.471L354.399 419.916C353.439 420.518 352.66 420.045 352.66 418.842V402.99C352.694 402.344 352.87 401.716 353.172 401.156C353.474 400.596 353.894 400.121 354.399 399.768Z" fill="white"/>
<path d="M404.825 408.768L454.791 377.815C456.79 376.612 458.269 377.579 458.269 379.963V396.546C458.203 397.839 457.854 399.097 457.25 400.217C456.645 401.337 455.803 402.287 454.791 402.99L404.825 433.964C402.826 435.146 401.367 434.179 401.367 431.816V415.212C401.437 413.923 401.785 412.669 402.386 411.55C402.986 410.431 403.821 409.479 404.825 408.768Z" fill="#FF725E"/>
<path opacity="0.1" d="M404.825 408.768L454.791 377.815C456.79 376.612 458.269 377.579 458.269 379.963V396.546C458.203 397.839 457.854 399.097 457.25 400.217C456.645 401.337 455.803 402.287 454.791 402.99L404.825 433.964C402.826 435.146 401.367 434.179 401.367 431.816V415.212C401.437 413.923 401.785 412.669 402.386 411.55C402.986 410.431 403.821 409.479 404.825 408.768Z" fill="black"/>
<path d="M523.145 338.786C523.145 338.786 498.602 302.398 497.163 297.973C496.023 294.708 497.163 289.854 497.522 287.598C497.882 285.343 498.202 280.317 498.562 279.006C499.161 276.558 496.223 277.052 494.564 279.285C492.906 281.519 492.346 285.987 491.486 286.718C490.627 287.448 484.091 277.202 480.674 272.476C477.256 267.751 475.117 264.872 473.019 266.634C471.52 267.901 472.639 270.65 475.117 274.689C476.565 276.863 477.899 279.122 479.115 281.455C479.495 282.336 477.456 282.4 476.357 284.226C475.497 285.644 476.357 287.942 475.157 289.038C474.419 289.641 473.914 290.515 473.737 291.494C473.56 292.472 473.724 293.486 474.198 294.343C476.423 298.098 479.292 301.364 482.652 303.966C486.33 306.694 487.809 307.661 489.987 311.377C492.166 315.093 511.713 353.049 513.032 355.325C514.351 357.602 516.889 362.242 520.747 362.371C524.604 362.5 556.183 333.287 557.802 331.826C562.998 327.165 564.657 326.499 565.537 330.688C565.84 332.177 566.067 333.683 566.216 335.198C566.836 340.526 570.213 359.557 570.213 359.557C570.213 359.557 586.203 367.87 599.334 363.853C612.465 359.836 616.902 353.843 616.902 353.843L610.326 342.33C612.105 337.583 620.32 318.337 622.978 304.868L581.806 297.716C580.966 297.522 579.607 297.157 577.808 296.663C575.55 296.019 569.814 293.892 565.477 297.973C551.326 311.227 523.185 338.786 523.185 338.786" fill="#FFA8A7"/>
<path d="M604.77 562.051L597.395 573.07C600.747 574.752 604.409 575.597 608.108 575.54C614.724 575.798 616.542 573.392 616.782 572.92C617.901 570.342 616.163 565.702 615.683 561.707L604.77 562.051Z" fill="#37474F"/>
<path d="M597.815 567.786C597.815 567.786 588.861 567.163 582.685 566.347C576.509 565.531 571.613 568.753 573.052 571.481C574.491 574.208 577.908 576.485 583.225 578.397C587.762 580.051 593.218 581.233 597.935 582.693C602.652 584.154 605.929 586.066 608.668 585.035C611.726 583.896 613.045 582.586 612.785 580.18C612.117 576.758 611.29 573.374 610.306 570.041L597.815 567.786Z" fill="#37474F"/>
<path d="M616.782 550.989C616.782 550.989 615.663 560.998 615.583 563.146C615.503 565.294 606.489 565.982 604.77 562.051L604.49 549.807L616.782 550.989Z" fill="#F28F8F"/>
<path d="M607.708 557.132L610.926 572.34C610.926 572.34 611.226 574.187 603.871 575.368C596.516 576.55 584.964 571.223 582.985 570.149C581.006 569.075 580.786 566.905 588.022 567.335C595.257 567.764 597.815 567.786 597.815 567.786L595.457 561.063L607.708 557.132Z" fill="#FFA8A7"/>
<path d="M622.858 304.74L627.955 303.214C627.955 303.214 638.607 339.452 639.787 342.953C640.966 346.454 642.305 350.149 640.006 354.466C637.268 359.6 622.858 380.242 622.858 380.242L613.704 370.619L624.097 350.17L614.903 330.194L622.858 304.74Z" fill="#F28F8F"/>
<path d="M570.513 257.676C569.319 255.266 568.712 252.569 568.75 249.838C568.789 247.107 569.471 244.431 570.733 242.06C575.81 231.943 587.122 227.024 600.593 228.893C606.829 229.774 614.184 235.337 618.201 243.65C622.638 252.865 623.058 271.424 624.197 278.448L570.513 257.676Z" fill="#37474F"/>
<path d="M570.153 261.65C570.153 261.65 566.956 268.202 567.515 268.803C568.344 269.323 569.25 269.687 570.193 269.877L570.153 261.65Z" fill="#FFA8A7"/>
<path d="M579.867 240.943C576.389 243.371 570.393 247.839 570.133 262.552C569.854 277.589 571.852 282.55 573.931 284.29C575.33 285.472 583.544 284.87 587.062 283.99C590.58 283.109 600.713 277.717 604.37 269.533C608.668 259.91 607.788 245.905 601.412 241.609C598.167 239.547 594.488 238.404 590.72 238.287C586.951 238.171 583.217 239.085 579.867 240.943Z" fill="#FFA8A7"/>
<path d="M616.782 353.757C622.938 364.068 628.774 373.09 630.053 384.732C632.691 409.198 624.057 437.165 622.198 455.273C625.694 460.423 627.709 466.562 627.995 472.929C627.995 480.426 616.782 550.989 616.782 550.989C616.782 550.989 608.628 553.652 604.49 549.807L596.796 420.002L600.793 404.193L616.782 353.757Z" fill="#FF725E"/>
<path opacity="0.2" d="M616.782 353.757C622.938 364.068 628.774 373.09 630.053 384.732C632.691 409.198 624.057 437.165 622.198 455.273C625.694 460.423 627.709 466.562 627.995 472.929C627.995 480.426 616.782 550.989 616.782 550.989C616.782 550.989 608.628 553.652 604.49 549.807L596.796 420.002L600.793 404.193L616.782 353.757Z" fill="black"/>
<path d="M596.796 420.002L600.793 404.193C608.446 402.028 615.828 398.876 622.778 394.806C622.778 394.806 618.621 402.947 606.669 407.415L600.493 427.714L599.973 474.218L596.796 420.002Z" fill="#FF725E"/>
<path opacity="0.3" d="M596.796 420.002L600.793 404.193C608.446 402.028 615.828 398.876 622.778 394.806C622.778 394.806 618.621 402.947 606.669 407.415L600.493 427.714L599.973 474.218L596.796 420.002Z" fill="black"/>
<path d="M616.782 353.757C620.08 359.557 627.954 369.438 626.276 378.954C624.277 390.467 618.481 398.565 600.853 404.193L584.304 468.633C584.304 468.633 592.918 477.226 595.556 485.538C598.195 493.851 607.708 557.175 607.708 557.175C607.708 557.175 604.75 562.352 595.456 561.106C595.456 561.106 563.058 481.629 560.78 476.452C558.014 471.21 557.045 465.091 558.042 459.161C559.061 450.826 570.034 359.6 570.034 359.6L616.782 353.757Z" fill="#FF725E"/>
<path opacity="0.2" d="M616.782 353.757C620.08 359.557 627.954 369.438 626.276 378.954C624.277 390.467 618.481 398.565 600.853 404.193L584.304 468.633C584.304 468.633 592.918 477.226 595.556 485.538C598.195 493.851 607.708 557.175 607.708 557.175C607.708 557.175 604.75 562.352 595.456 561.106C595.456 561.106 563.058 481.629 560.78 476.452C558.014 471.21 557.045 465.091 558.042 459.161C559.061 450.826 570.034 359.6 570.034 359.6L616.782 353.757Z" fill="black"/>
<path d="M622.858 304.74L581.686 297.587C580.846 297.393 579.487 297.028 577.688 296.534C577.688 296.534 575.93 324.287 565.357 330.645C565.617 331.976 565.836 333.459 566.036 335.156C566.656 340.483 570.034 359.514 570.034 359.514C570.034 359.514 586.023 367.827 599.154 363.81C612.285 359.793 616.722 353.8 616.722 353.8L610.147 342.287C611.985 337.497 620.26 318.251 622.858 304.74Z" fill="#FF725E"/>
<path opacity="0.7" d="M622.858 304.74L581.686 297.587C580.846 297.393 579.487 297.028 577.688 296.534C577.688 296.534 575.93 324.287 565.357 330.645C565.617 331.976 565.836 333.459 566.036 335.156C566.656 340.483 570.034 359.514 570.034 359.514C570.034 359.514 586.023 367.827 599.154 363.81C612.285 359.793 616.722 353.8 616.722 353.8L610.147 342.287C611.985 337.497 620.26 318.251 622.858 304.74Z" fill="white"/>
<path d="M612.005 337.712C606.537 341.24 600.809 344.279 594.877 346.798C600.261 346.682 605.532 345.117 610.206 342.244L612.005 337.712Z" fill="#FF725E"/>
<path d="M578.848 241.674C578.848 241.674 576.849 255.636 581.566 263.841C581.566 263.841 583.325 258.278 587.702 259.33C592.079 260.383 592.319 266.591 589.241 270.071C588.458 271.047 587.436 271.766 586.29 272.146C585.145 272.526 583.923 272.551 582.765 272.219C582.765 272.219 582.065 282.314 581.686 290.777C581.306 299.241 579.227 317.692 588.081 325.146C596.936 332.599 619.16 335.22 629.573 319.582C635.37 310.883 627.675 295.503 624.097 278.254C620.799 262.402 618.941 238.903 603.291 235.122C587.642 231.342 578.848 241.674 578.848 241.674Z" fill="#37474F"/>
<path d="M636.269 50.9081L632.971 53.0561C633.248 51.7951 633.402 50.5065 633.431 49.2112C633.431 42.0153 628.734 39.1155 622.938 42.7671C621.174 43.9106 619.6 45.3626 618.281 47.0632C618.281 37.3971 611.965 33.4662 604.171 38.2992C600.063 41.1782 596.645 45.0571 594.193 49.6215C591.742 54.1858 590.326 59.307 590.06 64.5695C590.06 65.0636 590.06 65.5361 590.06 66.0087C588.052 65.7372 586.02 66.2395 584.324 67.4264C581.27 69.5652 578.728 72.448 576.905 75.8405C575.082 79.2331 574.029 83.0399 573.831 86.9519C573.83 87.8613 573.917 88.7684 574.091 89.6584L572.332 90.7539C567.555 93.7182 563.678 99.4963 563.678 103.642C563.678 107.788 567.555 108.776 572.332 105.79L636.289 66.1591C641.066 63.1948 644.943 57.4166 644.943 53.2709C644.943 49.1253 641.046 47.9224 636.269 50.9081Z" fill="#EBEBEB"/>
</svg>
