<svg width="1200" height="339" viewBox="0 0 1200 339" fill="none" xmlns="http://www.w3.org/2000/svg">
<path fill-rule="evenodd" clip-rule="evenodd" d="M0 14.3577L40 8.35773C80 2.35773 160 -9.64227 240 14.3577C320 38.3577 400 98.3577 480 134.358C560 170.358 640 182.358 720 164.358C800 146.358 880 98.3577 960 74.3577C1040 50.3577 1120 50.3577 1160 50.3577H1200V338.358H1160C1120 338.358 1040 338.358 960 338.358C880 338.358 800 338.358 720 338.358C640 338.358 560 338.358 480 338.358C400 338.358 320 338.358 240 338.358C160 338.358 80 338.358 40 338.358H0V14.3577Z" fill="#263238"/>
<path fill-rule="evenodd" clip-rule="evenodd" d="M0 50.2705L50 38.2705C100 26.2705 200 2.27051 300 14.2705C400 26.2705 500 74.2705 600 80.2705C700 86.2705 800 50.2705 900 44.2705C1000 38.2705 1100 62.2705 1150 74.2705L1200 86.2705V338.271H1150C1100 338.271 1000 338.271 900 338.271C800 338.271 700 338.271 600 338.271C500 338.271 400 338.271 300 338.271C200 338.271 100 338.271 50 338.271H0V50.2705Z" fill="#37474F"/>
<path fill-rule="evenodd" clip-rule="evenodd" d="M0 122L50 140C100 158 200 194 300 194C400 194 500 158 600 170C700 182 800 242 900 272C1000 302 1100 302 1150 302H1200V338H1150C1100 338 1000 338 900 338C800 338 700 338 600 338C500 338 400 338 300 338C200 338 100 338 50 338H0V122Z" fill="#455A64"/>
<path fill-rule="evenodd" clip-rule="evenodd" d="M0 338L50 302C100 266 200 194 300 164C400 134 500 146 600 152C700 158 800 158 900 146C1000 134 1100 110 1150 98L1200 86V338H1150C1100 338 1000 338 900 338C800 338 700 338 600 338C500 338 400 338 300 338C200 338 100 338 50 338H0Z" fill="#455A64" fill-opacity="0.7"/>
</svg>
